# xmcd CD database file
#
# Track frame offsets:
#	150
#	20394
#	36195
#	60862
#	74595
#	93330
#	112402
#	132270
#	155542
#	176567
#
# Disc length: 2619 seconds
#
# Revision: 3
# Processed by: cddbd v1.5.1PL2 Copyright (c) Steve Scherf et al.
# Submitted via: CDex 1.70beta2
#
DISCID=860a390a
DTITLE=Steve Earle - Copperhead Road
DYEAR=1988
DGENRE=Country
TTITLE0=Copperhead Road
TTITLE1=Snake Oil
TTITLE2=Back to the Wall
TTITLE3=The Devil's Right Hand
TTITLE4=Johnny Come Lately
TTITLE5=Even When I'm Blue
TTITLE6=You Belong to Me
TTITLE7=Waiting on You
TTITLE8=Once you Love
TTITLE9=Nothing but a Child
EXTD=YEAR: 1988
EXTT0=
EXTT1=
EXTT2=
EXTT3=
EXTT4=
EXTT5=
EXTT6=
EXTT7=
EXTT8=
EXTT9=
PLAYORDER=
